<svg xmlns="http://www.w3.org/2000/svg" width="75" height="58" viewBox="0 0 75 58">
  <metadata><?xpacket begin="﻿" id="W5M0MpCehiHzreSzNTczkc9d"?>
<x:xmpmeta xmlns:x="adobe:ns:meta/" x:xmptk="Adobe XMP Core 5.6-c142 79.160924, 2017/07/13-01:06:39        ">
   <rdf:RDF xmlns:rdf="http://www.w3.org/1999/02/22-rdf-syntax-ns#">
      <rdf:Description rdf:about=""/>
   </rdf:RDF>
</x:xmpmeta>
                                                                                                    
                                                                                                    
                                                                                                    
                                                                                                    
                                                                                                    
                                                                                                    
                                                                                                    
                                                                                                    
                                                                                                    
                                                                                                    
                                                                                                    
                                                                                                    
                                                                                                    
                                                                                                    
                                                                                                    
                                                                                                    
                                                                                                    
                                                                                                    
                                                                                                    
                                                                                                    
                           
<?xpacket end="w"?></metadata>
<defs>
    <style>
      .cls-1 {
        fill: #171717;
        fill-rule: evenodd;
      }
    </style>
  </defs>
  <path id="Фигура_29" data-name="Фигура 29" class="cls-1" d="M698.716,848.627V835.984c0.449,0.165.875,0.331,1.323,0.5l0.071-.332c-0.4-.141-0.779-0.307-1.181-0.45a2.412,2.412,0,0,1-.52-0.236,31.383,31.383,0,0,1,.119-4.38c0.023-.119.212-0.047,0.5,0.071,0.708,0.26,1.441.521,2.173,0.758l0.047-.1c0.024-.118.047-0.212,0.071-0.307-0.9-.308-1.8-0.616-2.6-0.924,0.213-14.205,13.536-19.58,25.8-19.58v11.933a15.945,15.945,0,0,0-9.544,3.244,15.739,15.739,0,0,0-5.48,7.766c-0.874-.213-1.724-0.45-2.575-0.687l-0.118.4c0.874,0.237,1.725.45,2.575,0.663a18.319,18.319,0,0,0-.5,2.32h0a16.346,16.346,0,0,0-.142,2.132c-1.063-.237-2.1-0.521-3.141-0.805l-0.048.165h0c-0.023.071-.047,0.119-0.071,0.19q1.594,0.461,3.26.852A15.817,15.817,0,0,0,722.386,854.5h0a16.14,16.14,0,0,0,2.126.141v6.346A38.651,38.651,0,0,0,750.5,850.592c-2.882,4.048-10.016,7.624-11.74,8.31a39.047,39.047,0,0,1-14.244,2.818h0v2.439a48.643,48.643,0,0,0,33.236-13.117,44.582,44.582,0,0,1-33.236,14.845v3.1a46.574,46.574,0,0,1-20.74-4.83C699.827,862.217,687,853.765,687,848.792a4.653,4.653,0,0,1,4.654-4.664,7.066,7.066,0,0,1,5.031,2.51c0.425,0.45.85,0.876,1.3,1.3v3.173l0.118,0.118a39.506,39.506,0,0,0,26.386,10.489h0.024v2.439a48.656,48.656,0,0,1-33.26-13.117,44.6,44.6,0,0,0,33.26,14.845v3.1a46.4,46.4,0,0,0,20.716-4.83C749.2,862.217,762,853.765,762,848.792a4.653,4.653,0,0,0-4.654-4.664,7.109,7.109,0,0,0-5.031,2.51c-0.5.521-1.016,1.042-1.559,1.539-0.165.142-.307,0.308-0.473,0.45v-1.563a52.023,52.023,0,0,1-10.724-.876l0.118-.379a58.2,58.2,0,0,0,10.063.9h0a3.879,3.879,0,0,0,.638-0.047c-0.024,0,.047-1.539.165-4.546,0.024-.284.024-0.474-0.189-0.5l-0.637.023c-0.756,0-1.607-.023-2.528-0.094a39.743,39.743,0,0,1-6.142-.876l0.024-.356a45.186,45.186,0,0,0,9.212.948V830.941c0-14.467-13.441-19.936-25.771-19.936v11.933a13.688,13.688,0,0,1,2.173.166,15.865,15.865,0,0,1,13.535,17.852,15.905,15.905,0,0,1-6.118,10.465,15.606,15.606,0,0,1-9.59,3.219v6.346a38.665,38.665,0,0,1-25.8-10.205v-2.154h0Zm44.575-16.171a1.5,1.5,0,0,0-.732-0.876,1.581,1.581,0,0,0-.732-0.237l1.015,2.912a1.818,1.818,0,0,0,.449-0.663,1.568,1.568,0,0,0,0-1.136h0Zm-37.606,12.335a1.771,1.771,0,0,1,.047-1.16,1.5,1.5,0,0,1,.473-0.616l0.921,2.936a1.735,1.735,0,0,1-1.441-1.16h0ZM708,846.567l-0.189-.616,1.654-.544c0.094,0.213.189,0.4,0.283,0.592Zm-0.4-1.231-0.756-2.439,1.63-.521a17.071,17.071,0,0,0,.733,2.439Zm-1.015-3.244-0.024-.1,1.724-.568c0.024,0.119.048,0.213,0.071,0.308l-1.7.545Zm13.3,16.03a1.628,1.628,0,0,0,1.157-.119,1.7,1.7,0,0,0,.591-0.5l-2.976-.758a1.974,1.974,0,0,0,.283.734,1.594,1.594,0,0,0,.945.64h0Zm-1.914-2.2,0.638,0.166,0.449-1.728c-0.213-.071-0.425-0.166-0.614-0.237Zm1.276,0.308,2.457,0.639,0.425-1.752a13.782,13.782,0,0,1-2.457-.568Zm3.284,0.829,0.094,0.023,0.472-1.846c-0.118-.024-0.212-0.024-0.33-0.048l-0.449,1.823Zm16.889-5.162a1.658,1.658,0,0,0,.4-1.065,1.8,1.8,0,0,0-.165-0.782l-2.032,2.321a1.469,1.469,0,0,0,.779.071,1.662,1.662,0,0,0,1.016-.545h0Zm-2.858.687,0.449-.5-1.323-1.16c-0.165.165-.331,0.307-0.5,0.449Zm0.874-.971,1.677-1.894-1.3-1.16a18.449,18.449,0,0,1-1.654,1.942Zm2.221-2.557,0.07-.071-1.37-1.208c-0.047.1-.118,0.166-0.165,0.261l1.346,1.184Zm-29.079-24.292a1.62,1.62,0,0,1,1.039-.473,1.524,1.524,0,0,1,.78.141l-2.2,2.155a1.787,1.787,0,0,1-.118-0.781,1.55,1.55,0,0,1,.5-1.042h0Zm-0.544,2.889,0.473-.474,1.228,1.255c-0.141.166-.26,0.355-0.4,0.521Zm0.922-.924,1.819-1.776,1.181,1.208a15.853,15.853,0,0,0-1.8,1.776Zm2.433-2.367,0.071-.071,1.252,1.278-0.118.095-0.119.094L713.22,824.5Zm18.165-4.1a1.634,1.634,0,0,0-1.157,0,1.455,1.455,0,0,0-.638.426l2.858,1.09a1.416,1.416,0,0,0-.212-0.758,1.587,1.587,0,0,0-.851-0.758h0Zm1.63,2.415-0.59-.236-0.615,1.633c0.189,0.1.378,0.214,0.567,0.308Zm-1.205-.449-2.362-.9L729,822.914a15.948,15.948,0,0,1,2.386.876Zm-3.165-1.208-0.1-.024-0.637,1.681c0.094,0.024.189,0.048,0.307,0.072L729,821.092Zm13.724,14.253-0.236-.615-1.677.592a6.629,6.629,0,0,1,.118.663Zm-0.448-1.231-0.851-2.391-1.606.568a14.611,14.611,0,0,1,.827,2.415Zm-1.134-3.2-0.024-.1-1.7.616a2.454,2.454,0,0,1,.142.26l1.654-.568Zm-16.441-6.89v6.037c-0.378-.355-0.733-0.663-1.087-0.946-2.008-1.634-3.921-2.3-5.22-1.681h-0.024l-0.142.094c-3.189,1.823-.59,9.163.4,11.389a25.668,25.668,0,0,0-1.158,3.125c-0.448-.118-0.85-0.284-1.252-0.426-2.055-.829-3.354-1.847-3.33-2.818,0-.947,1.3-1.965,3.378-2.746a8.117,8.117,0,0,1,.8-0.261c-0.095-.284-0.189-0.592-0.26-0.9-0.024-.095-0.047-0.213-0.071-0.332-0.307.1-.614,0.213-0.921,0.308-2.575.97-4.181,2.391-4.205,3.93,0,1.539,1.583,2.983,4.158,4,0.425,0.165.874,0.331,1.37,0.473a13.954,13.954,0,0,0-.307,1.563c-0.378,2.675.071,4.712,1.37,5.445,1.323,0.758,3.378.072,5.527-1.681,0.236-.189.449-0.379,0.685-0.592-0.307-.307-0.614-0.592-0.9-0.9-0.189.166-.4,0.331-0.591,0.5-1.724,1.42-3.26,2.06-4.086,1.586s-1.063-2.036-.756-4.167c0.07-.449.165-0.923,0.259-1.421,0.662,0.166,1.347.285,2.056,0.4h0a32.433,32.433,0,0,0,4.3.331v1.587l-0.024.023h0.024c-0.378-.4-0.733-0.828-1.087-1.254l-1.157-.071c-0.166-.024-0.355-0.024-0.544-0.047,0.5,0.662,1.016,1.3,1.512,1.87,0.284,0.308.591,0.615,0.851,0.9,0.141,0.143.283,0.261,0.425,0.4v5.966a13.925,13.925,0,0,1-1.984-.142,14.842,14.842,0,0,1,1.984-29.548h0Zm0,7.837v1.61c-1.04,0-2.032.047-3.047,0.142h0a23.346,23.346,0,0,0-3.331.521c-0.1-.474-0.189-0.923-0.236-1.349-0.307-2.132-.048-3.694.756-4.168h0c0.826-.473,2.291.119,3.968,1.492q0.5,0.39.992,0.852c-0.59.64-1.559,1.871-2.149,2.652,0.685-.071.519,0,1.7-0.118,0.307-.379,1.016-1.279,1.347-1.634h0Zm0,2.888v2.3h0a1.859,1.859,0,1,0,0,3.717h0v2.3h-0.095a25.289,25.289,0,0,1-5.929-.687c0.166-.521.354-1.089,0.567-1.633l0.024-.024,0.094-.26a8.209,8.209,0,0,1,.331-0.805h0l0.024-.047v-0.048c0.189-.4.4-0.829,0.59-1.255l0.024-.024h0c0.236-.473.472-0.923,0.732-1.4l0.024-.047c0.33-.545.661-1.089,0.992-1.61-0.118.023-.26,0.023-0.378,0.047a9.8,9.8,0,0,0-1.229.142,7.635,7.635,0,0,0-.425.734l-0.047.071c-0.236.4-.449,0.782-0.638,1.184a21.116,21.116,0,0,1-.708-2.036,25.866,25.866,0,0,1,6.047-.616h0Zm0-10.725v6.037a9.881,9.881,0,0,1,1.086-.946c2.008-1.634,3.9-2.3,5.2-1.681h0.024l0.142,0.094c1.322,0.734,1.771,2.77,1.417,5.422-0.071.4-.142,0.805-0.236,1.231-0.048.261-.118,0.521-0.189,0.782-0.118.521-.284,1.041-0.449,1.562h0a21.937,21.937,0,0,1-.945,2.392l0.024,0.023c-0.142.284-.26,0.545-0.4,0.805-0.283.592-.59,1.208-0.945,1.823-0.236.426-.5,0.829-0.756,1.232,0.591-.071,1.134-0.166,1.677-0.284l0.213,0.71c0.047,0.165.071,0.355,0.118,0.52a26.788,26.788,0,0,1-2.929.45c-0.591.829-1.488,2.013-2.1,2.7a11.9,11.9,0,0,1-.945-0.948h0a22.177,22.177,0,0,0,1.748,1.658c1.748,1.42,3.26,2.06,4.11,1.586,0.8-.473,1.039-2.036.732-4.167-0.047-.426-0.141-0.829-0.236-1.279a2.922,2.922,0,0,0-.142-0.615c-0.047-.237-0.118-0.45-0.189-0.687h0c-0.141-.45-0.5-1.468-0.661-1.941,0.189-.5.52-1.184,0.709-1.563,0.354,0.853.921,2.344,1.181,3.173h0a17.987,17.987,0,0,1,.59,2.723c0.378,2.675-.071,4.712-1.37,5.445-1.323.758-3.378,0.072-5.527-1.681-0.331-.284-0.638-0.568-0.945-0.852v5.966a14.517,14.517,0,0,0,8.976-3.03,14.788,14.788,0,0,0-8.976-26.66h0Zm0,7.837v1.61h0.023c0.284,0,.591,0,0.874.024,0.189,0.236.378,0.473,0.567,0.733,0.142,0.19.284,0.379,0.426,0.592-0.615-.047-1.229-0.071-1.867-0.071h-0.023v2.3a1.857,1.857,0,0,1,1.3.545,1.861,1.861,0,0,1,0,2.628,1.86,1.86,0,0,1-1.3.544v2.3q1.2,0,2.338-.071c0.449-.663.874-1.326,1.276-2.06,0.4-.663.732-1.35,1.063-2.012-0.331-.687-0.685-1.374-1.087-2.06h0c-0.354-.64-0.732-1.232-1.11-1.8a11.739,11.739,0,0,0-.709-1.066c-0.236-.308-0.448-0.592-0.685-0.852-0.283-.355-0.567-0.664-0.826-0.971a9.6,9.6,0,0,1,.661-0.711c0.071-.071.142-0.141,0.213-0.213a22.388,22.388,0,0,1,1.913,2.392c0.992,0.118,2.409.379,3.283,0.568-0.094.4-.212,0.829-0.33,1.231-0.5-.142-1.488-0.308-2.008-0.4,0.236,0.4.472,0.781,0.709,1.183h0c0.212,0.4.425,0.782,0.637,1.184a21.676,21.676,0,0,0,.992-3.2h0q0.179-.745.284-1.42c0.283-2.132.024-3.694-.78-4.168h0c-0.826-.473-2.291.119-3.968,1.469-0.284.236-.567,0.5-0.874,0.78a4.047,4.047,0,0,0-.331.308c-0.212.213-.449,0.45-0.661,0.71v-0.023Zm0,12.477v1.587c0.354-.379,1.039-1.184,1.37-1.61-0.449.023-.921,0.023-1.37,0.023h0Zm13.063-5.35c0.023-1.516-1.512-2.936-4.016-3.93-0.354-.143-0.732-0.285-1.134-0.4-0.023.142-.071,0.26-0.094,0.4-0.071.283-.142,0.544-0.237,0.828a6.179,6.179,0,0,1,.993.355c2.007,0.8,3.236,1.8,3.236,2.747-0.024.923-1.276,1.917-3.284,2.7-0.26.094-1.015,0.331-1.275,0.426,0.118,0.4.212,0.829,0.307,1.231,0.331-.095,1.11-0.355,1.417-0.473,2.5-.971,4.087-2.392,4.087-3.883h0ZM722.1,842.9c-0.33-.5-0.945-1.515-1.228-2.036-0.213-.355-0.591-0.994-0.874-1.468-0.213.474-.425,0.947-0.614,1.468,0.307,0.639.732,1.421,0.968,1.823,0.591,0.1,1.252.166,1.748,0.213h0Zm-2.315-3.93h0l-0.047.094ZM706.772,832.6l-1.536,5.445a1.079,1.079,0,0,1-.449.569,1.033,1.033,0,0,1-.661.166c-0.071-.024-1.016-0.214-3.024-0.758a1.083,1.083,0,0,1-.614-0.45,1.53,1.53,0,0,1-.165-0.852c0.189-.948.4-1.823,0.59-2.6,0.213-.829.426-1.562,0.638-2.225v-0.024h0a1.414,1.414,0,0,1,.331-0.734,1.67,1.67,0,0,1,1.417.1l2.811,0.663a0.934,0.934,0,0,1,.614.284,0.435,0.435,0,0,1,.048.426h0Zm-5.15,4.048a29.563,29.563,0,0,0,1.016-3.811,8.982,8.982,0,0,0-1.016,3.811h0Zm3.071,0.853s0.307-1.4,1.086-4.072c0.024-.166.1-0.332,0.119-0.474a0.482,0.482,0,0,0,.023-0.308,0.4,0.4,0,0,0-.26-0.213l-0.047-.024a7.572,7.572,0,0,1-1.583-.213,5.369,5.369,0,0,1-1.086-.4,0.558,0.558,0,0,0-.614,0,0.7,0.7,0,0,0-.189.355,8.3,8.3,0,0,0-.284.9c-0.283,1.018-.708,2.368-0.9,3.338a1.008,1.008,0,0,0,.141.829,1.213,1.213,0,0,0,.615.355l0.023,0.024c0.4,0.095,1.205.331,1.795,0.426a1.1,1.1,0,0,0,.756-0.047,0.949,0.949,0,0,0,.378-0.427v-0.023Zm15.283-23.653a19.135,19.135,0,0,1,2.032.119,23.232,23.232,0,0,0-18.732,10.086,18.769,18.769,0,0,1,16.7-10.205h0Z" transform="translate(-687 -811)"/>
</svg>
