<svg xmlns="http://www.w3.org/2000/svg" width="54" height="48" viewBox="0 0 54 48">
  <metadata><?xpacket begin="﻿" id="W5M0MpCehiHzreSzNTczkc9d"?>
<x:xmpmeta xmlns:x="adobe:ns:meta/" x:xmptk="Adobe XMP Core 5.6-c142 79.160924, 2017/07/13-01:06:39        ">
   <rdf:RDF xmlns:rdf="http://www.w3.org/1999/02/22-rdf-syntax-ns#">
      <rdf:Description rdf:about=""/>
   </rdf:RDF>
</x:xmpmeta>
                                                                                                    
                                                                                                    
                                                                                                    
                                                                                                    
                                                                                                    
                                                                                                    
                                                                                                    
                                                                                                    
                                                                                                    
                                                                                                    
                                                                                                    
                                                                                                    
                                                                                                    
                                                                                                    
                                                                                                    
                                                                                                    
                                                                                                    
                                                                                                    
                                                                                                    
                                                                                                    
                           
<?xpacket end="w"?></metadata>
<defs>
    <style>
      .cls-1 {
        fill: #61dafb;
        fill-rule: evenodd;
      }
    </style>
  </defs>
  <path class="cls-1" d="M1004,1585.01c0-3.58-4.48-6.96-11.348-9.06,1.585-6.98.88-12.54-2.224-14.32a4.771,4.771,0,0,0-2.454-.62V1561c-3.027,0-6.99,2.15-11,5.89-4.007-3.71-7.969-5.85-11-5.85v0.01a4.894,4.894,0,0,0-2.488.62c-3.092,1.78-3.786,7.33-2.19,14.29-6.846,2.11-11.3,5.49-11.3,9.05s4.48,6.95,11.348,9.05c-1.585,6.99-.88,12.54,2.224,14.32a4.819,4.819,0,0,0,2.476.62c3.027,0,6.989-2.15,11-5.89,4.006,3.71,7.969,5.85,11,5.85a4.891,4.891,0,0,0,2.487-.62c3.093-1.78,3.787-7.33,2.191-14.29C999.542,1591.95,1004,1588.57,1004,1585.01Zm-16.037-21.56v0.01a2.521,2.521,0,0,1,1.255.29c1.5,0.85,2.146,4.12,1.64,8.31-0.121,1.04-.32,2.12-0.562,3.23a54.084,54.084,0,0,0-6.989-1.19,53.457,53.457,0,0,0-4.579-5.5C982.311,1565.28,985.674,1563.46,987.963,1563.45Zm-20.715,27.18c0.517,0.88,1.045,1.74,1.585,2.57-1.563-.23-3.071-0.51-4.513-0.87,0.407-1.41.914-2.87,1.486-4.34C966.257,1588.87,966.73,1589.75,967.248,1590.63Zm-2.961-12.95c1.442-.34,2.961-0.64,4.535-0.87-0.54.85-1.079,1.71-1.585,2.6s-0.98,1.76-1.431,2.64C965.212,1580.58,964.705,1579.11,964.287,1577.68Zm2.807,7.36c0.682-1.47,1.453-2.95,2.278-4.39,0.859-1.48,1.739-2.88,2.653-4.19,1.64-.14,3.3-0.22,4.975-0.22s3.324,0.08,4.953.21c0.914,1.3,1.805,2.7,2.664,4.17q1.254,2.16,2.289,4.37c-0.693,1.48-1.453,2.95-2.278,4.39-0.859,1.48-1.739,2.89-2.653,4.19-1.64.15-3.3,0.22-4.975,0.22s-3.324-.07-4.953-0.2c-0.914-1.31-1.805-2.71-2.664-4.18Q968.129,1587.25,967.094,1585.04Zm19.658,5.56c0.506-.88.98-1.77,1.431-2.65,0.594,1.47,1.1,2.94,1.519,4.37-1.442.35-2.961,0.65-4.535,0.88C985.706,1592.36,986.246,1591.49,986.752,1590.6Zm-0.011-11.22c-0.506-.88-1.046-1.74-1.585-2.57,1.563,0.23,3.071.52,4.513,0.87-0.407,1.41-.914,2.88-1.486,4.34C987.732,1581.14,987.258,1580.26,986.741,1579.38Zm-6.714-5.53c-0.991-.04-2-0.07-3.027-0.07s-2.058.02-3.06,0.07a42.916,42.916,0,0,1,3.027-3.51A45.333,45.333,0,0,1,980.027,1573.85Zm-15.311-10.06a2.432,2.432,0,0,1,1.266-.29v-0.01c2.278,0,5.658,1.82,9.246,5.12a51.781,51.781,0,0,0-4.546,5.49,52.223,52.223,0,0,0-7,1.2c-0.254-1.09-.441-2.16-0.573-3.18C962.592,1567.92,963.23,1564.66,964.716,1563.79Zm-2.774,27.9c-1.089-.35-2.124-0.72-3.081-1.13-3.9-1.65-6.417-3.83-6.417-5.55s2.52-3.92,6.417-5.56c0.946-.41,1.981-0.77,3.048-1.11a53.146,53.146,0,0,0,2.477,6.69A51.331,51.331,0,0,0,961.942,1591.69Zm4.084,14.87a2.583,2.583,0,0,1-1.244-.3c-1.5-.85-2.146-4.12-1.64-8.31,0.121-1.04.319-2.12,0.562-3.23a55.782,55.782,0,0,0,6.989,1.2,54.39,54.39,0,0,0,4.579,5.49C971.684,1604.74,968.315,1606.56,966.026,1606.56Zm11-6.89a45.333,45.333,0,0,1-3.06-3.51c0.991,0.04,2,.07,3.027.07s2.058-.02,3.06-0.07A42.916,42.916,0,0,1,977.022,1599.67Zm12.262,6.55a2.434,2.434,0,0,1-1.266.29c-2.279,0-5.658-1.82-9.246-5.12a51.781,51.781,0,0,0,4.546-5.49,52.25,52.25,0,0,0,7-1.2,30.713,30.713,0,0,1,.573,3.19C991.408,1602.09,990.77,1605.35,989.284,1606.22Zm5.844-15.66c-0.946.41-1.981,0.77-3.049,1.11a53.135,53.135,0,0,0-2.476-6.69,51.746,51.746,0,0,0,2.443-6.65c1.09,0.34,2.125.71,3.093,1.12,3.9,1.66,6.421,3.83,6.421,5.56S999.025,1588.92,995.128,1590.56Zm-18.139-.53a5.025,5.025,0,1,0-5.03-5.02A5.027,5.027,0,0,0,976.989,1590.03Z" transform="translate(-950 -1561)"/>
</svg>
