<?xml version="1.0" encoding="UTF-8" standalone="no"?>
<!-- Created with Inkscape (http://www.inkscape.org/) -->

<svg
   xmlns:dc="http://purl.org/dc/elements/1.1/"
   xmlns:cc="http://creativecommons.org/ns#"
   xmlns:rdf="http://www.w3.org/1999/02/22-rdf-syntax-ns#"
   xmlns:svg="http://www.w3.org/2000/svg"
   xmlns="http://www.w3.org/2000/svg"
   xmlns:sodipodi="http://sodipodi.sourceforge.net/DTD/sodipodi-0.dtd"
   xmlns:inkscape="http://www.inkscape.org/namespaces/inkscape"
   width="2048mm"
   height="1024mm"
   viewBox="0 0 2047.9743 1023.9871"
   version="1.1"
   id="svg577"
   inkscape:version="0.92.1 r15371"
   sodipodi:docname="mapsy-logo.svg">
  <defs
     id="defs571" />
  <sodipodi:namedview
     id="base"
     pagecolor="#ffffff"
     bordercolor="#666666"
     borderopacity="1.0"
     inkscape:pageopacity="0.0"
     inkscape:pageshadow="2"
     inkscape:zoom="0.24748737"
     inkscape:cx="4910.188"
     inkscape:cy="997.2687"
     inkscape:document-units="px"
     inkscape:current-layer="layer1"
     showgrid="false"
     inkscape:window-width="3428"
     inkscape:window-height="2108"
     inkscape:window-x="0"
     inkscape:window-y="88"
     inkscape:window-maximized="1" />
  <metadata
     id="metadata574">
    <rdf:RDF>
      <cc:Work
         rdf:about="">
        <dc:format>image/svg+xml</dc:format>
        <dc:type
           rdf:resource="http://purl.org/dc/dcmitype/StillImage" />
        <dc:title />
      </cc:Work>
    </rdf:RDF>
  </metadata>
  <g
     inkscape:label="Layer 1"
     inkscape:groupmode="layer"
     id="layer1"
     transform="translate(0,726.99087)">
    <path
       style="font-style:normal;font-weight:normal;font-size:40px;line-height:1.25;font-family:sans-serif;letter-spacing:0px;word-spacing:0px;fill:#000000;fill-opacity:1;stroke:none;stroke-width:24.7099514"
       d="M 5227.9316 438.14844 C 5226.2016 438.1531 5224.4706 438.16938 5222.7363 438.19531 L 5222.7363 438.19336 C 5215.5774 438.29503 5208.3714 438.58915 5201.1426 439.0625 C 5096.3486 445.947 5003.095 490.73704 4933.8301 559.18359 C 4834.6661 550.89517 4732.2151 577.57037 4646.4883 642.16992 C 4461.3998 781.64588 4424.4075 1044.7664 4563.8848 1229.8574 C 4665.358 1364.5152 4839.3422 1436.6967 4987.5254 1475.1992 C 5023.3648 1528.6464 5080.567 1571.7547 5128.5215 1575.9902 C 5212.6639 1583.4224 5312.0529 1517.1454 5371.7676 1437.8086 C 5472.7873 1325.2396 5663.6621 1077.9478 5647.3926 830.2832 C 5632.788 608.00001 5447.6442 437.55612 5227.9316 438.14844 z M 5230.8691 646.68164 C 5340.1153 647.75319 5432.0371 733.193 5439.3145 843.96484 C 5444.4301 921.78875 5406.4176 992.5694 5345.8828 1033.1797 C 5332.7484 924.08115 5300.7618 813.13303 5234.1777 724.77344 C 5215.6692 700.21315 5194.9191 678.34462 5172.5293 659.06641 C 5180.7552 652.61199 5194.1818 648.47341 5214.8262 647.11719 C 5218.4553 646.87832 5222.0558 646.74714 5225.6543 646.69336 L 5225.6543 646.69531 C 5227.3968 646.66957 5229.1351 646.66463 5230.8691 646.68164 z M 4899.3418 766.26953 C 4902.3033 766.27727 4905.2627 766.34716 4908.2188 766.47852 C 4969.0306 769.18065 5028.2259 797.97213 5067.6348 850.26758 C 5137.6922 943.23689 5119.071 1075.8587 5026.0977 1145.9199 C 4933.1258 1215.9801 4800.4821 1197.3325 4730.4258 1104.3633 C 4660.3676 1011.3942 4679.0124 878.76869 4771.9805 808.71094 C 4810.1137 779.97588 4854.9186 766.15348 4899.3418 766.26953 z M 1286.3438 1022.1699 C 1091.827 1022.1699 947.12483 1157.3817 842.75 1351.8984 C 838.00569 1171.6146 795.3086 1026.9141 577.07031 1026.9141 C 361.20418 1026.9141 173.80273 1150.2663 173.80273 1323.4336 C 173.80273 1373.2489 188.03626 1389.8535 211.75781 1389.8535 C 304.27187 1389.8535 358.83182 1271.2461 446.60156 1271.2461 C 520.13838 1271.2461 543.85938 1363.7601 543.85938 1463.3906 C 543.85938 1555.9047 373.06445 2281.7841 373.06445 2611.5137 C 373.06445 2756.2151 413.39075 2841.6133 491.67188 2841.6133 C 553.34791 2841.6133 607.90706 2810.7745 667.21094 2782.3086 C 740.74775 2746.7263 764.46875 2682.6785 764.46875 2606.7695 C 764.46875 2516.6276 740.74783 2419.37 719.39844 2312.623 C 719.39844 2298.3901 721.77148 2281.7837 721.77148 2267.5508 C 783.44752 1968.6592 961.35912 1344.7832 1241.2734 1344.7832 C 1336.1596 1344.7832 1362.252 1427.8088 1362.252 1558.2773 C 1362.252 1902.2399 1132.1543 2445.4622 1132.1543 2656.584 C 1132.1543 2760.9588 1167.7357 2841.6133 1238.9004 2841.6133 C 1357.5082 2841.6133 1480.8613 2753.8432 1480.8613 2632.8633 C 1480.8613 2592.5366 1473.7434 2547.4655 1466.627 2502.3945 C 1480.8599 2110.9889 1756.0314 1605.7207 1943.4316 1605.7207 C 1995.6191 1605.7207 2012.2227 1648.4193 2012.2227 1719.584 C 2012.2227 1959.1717 1829.5664 2379.0419 1829.5664 2573.5586 C 1829.5664 2706.3993 1910.2197 2813.1465 2073.8984 2813.1465 C 2227.7763 2813.1465 2399.759 2709.9328 2508.748 2582.373 C 2556.2249 2733.211 2687.5755 2825.0078 2861.8633 2825.0078 C 3080.1016 2825.0078 3203.4531 2727.75 3286.4785 2592.5371 C 3312.5722 2723.0056 3364.7604 2813.1465 3454.9023 2813.1465 C 3560.3758 2813.1465 3674.3527 2764.6506 3770.7227 2693.0645 C 3728.9242 2936.2289 3715.9121 3129.7939 3715.9121 3235.3906 C 3715.9121 3287.578 3730.1464 3323.1599 3760.9844 3358.7422 C 3784.7059 3387.2081 3841.6363 3456.002 3908.0566 3456.002 C 3943.639 3456.002 3976.85 3420.4181 3993.4551 3389.5801 C 4019.5488 3339.7648 4078.8531 2839.2403 4145.2734 2454.9512 C 4166.6228 2326.8548 4221.1819 2220.1076 4268.625 2132.3379 C 4337.4175 2004.2415 4446.5369 1925.9609 4534.3066 1925.9609 C 4612.5878 1925.9609 4669.5195 1992.3813 4669.5195 2061.1738 C 4669.5195 2326.8552 4550.9108 2559.3262 4287.6016 2559.3262 C 4287.6016 2559.3262 4266.252 2609.1419 4266.252 2654.2129 C 4266.252 2789.4257 4410.9541 2836.8691 4574.6328 2836.8691 C 4693.2406 2836.8691 4821.3366 2825.0081 4911.4785 2789.4258 C 4986.3709 2760.9341 5056.2321 2719.59 5115.6992 2670.4785 C 5176.8934 2758.6427 5302.5243 2825.0078 5511.1152 2825.0078 C 5817.1233 2825.0078 5992.6621 2704.0281 5992.6621 2492.9062 C 5992.6621 2386.1593 5902.5208 2288.8999 5812.3789 2194.0137 C 5940.4753 2151.3149 6044.8496 2044.5677 6044.8496 1871.4004 C 6044.8496 1745.6762 5940.4762 1655.5352 5731.7266 1655.5352 C 5522.9769 1655.5352 5321.3438 1788.3754 5321.3438 2023.2188 C 5321.3438 2293.6444 5615.4904 2367.1808 5693.7715 2609.1406 C 5257.2949 2609.1406 5394.8794 2236.7129 5245.4336 2236.7129 C 5181.1737 2236.7129 5107.879 2327.0639 5080.7383 2436.9785 C 4979.9093 2530.0306 4824.4264 2635.2344 4643.4258 2635.2344 L 4614.959 2635.2344 C 4837.9416 2549.8368 5015.8535 2277.039 5015.8535 2032.707 C 5015.8535 1835.8181 4909.1061 1672.1406 4645.7969 1672.1406 C 4501.0954 1672.1406 4403.8376 1729.0722 4330.3008 1812.0977 C 4304.2071 1738.5608 4233.0418 1622.3242 4157.1328 1622.3242 C 4126.2948 1622.3242 4085.9685 1636.5587 4064.6191 1688.7461 C 3967.3651 1915.4042 3896.0104 2139.5854 3844.1328 2345.9316 C 3761.4291 2431.2635 3656.4933 2540.3496 3597.2305 2540.3496 C 3561.6481 2540.3496 3547.416 2454.9512 3547.416 2345.832 C 3547.416 2224.8521 3549.7875 2127.595 3566.3926 2037.4531 C 3601.9749 1978.1492 3632.8124 1921.2174 3663.6504 1850.0527 C 3663.6504 1771.7716 3533.1822 1641.3027 3435.9238 1641.3027 C 3402.7137 1641.3027 3376.6209 1667.3969 3355.2715 1710.0957 C 3338.6664 1700.6071 3314.9435 1693.4895 3284.1055 1686.373 C 3234.2902 1676.8844 3186.8483 1672.1406 3141.7773 1672.1406 C 2944.8885 1672.1406 2774.0938 1795.4924 2664.9746 1925.9609 C 2575.4227 2034.828 2522.2727 2170.9897 2500.6973 2307.5078 C 2415.0815 2393.7028 2284.9202 2540.3496 2216.2285 2540.3496 C 2171.1576 2540.3496 2154.5527 2507.1388 2154.5527 2450.207 C 2154.5527 2317.3663 2296.8828 1933.0778 2296.8828 1641.3027 C 2296.8828 1439.6695 2228.0893 1280.7344 1997.9902 1280.7344 C 1841.428 1280.7344 1722.8196 1368.5043 1632.6777 1494.2285 L 1632.6777 1475.252 C 1632.6777 1228.5478 1578.1188 1022.1699 1286.3438 1022.1699 z M 7063.4316 1622.3242 C 7032.5936 1622.3242 6992.2674 1636.5587 6970.918 1688.7461 C 6944.8243 1752.7943 6840.4481 2106.2443 6790.6328 2319.7383 C 6747.934 2445.4625 6693.3755 2542.7207 6570.0234 2542.7207 C 6486.998 2542.7207 6463.2754 2507.1395 6463.2754 2457.3242 C 6463.2754 2234.3416 6574.7676 2070.662 6574.7676 1883.2617 C 6574.7676 1762.2818 6560.5343 1653.1621 6449.043 1653.1621 C 6399.2277 1653.1621 6306.713 1665.0248 6249.7812 1710.0957 L 6180.9902 2272.2949 C 6128.8028 2371.9254 6105.0801 2433.6026 6105.0801 2514.2559 C 6105.0801 2708.7726 6245.0373 2796.541 6458.5312 2796.541 C 6610.3492 2796.541 6709.98 2725.3773 6776.4004 2632.8633 C 6764.5396 2701.6558 6747.9352 2770.4488 6731.3301 2836.8691 C 6370.7625 2922.2667 6078.9863 2936.4986 6078.9863 3140.5039 C 6078.9863 3318.4156 6252.1548 3456.002 6456.1602 3456.002 C 6800.1227 3456.002 6873.6594 3242.5062 6949.5684 2988.6855 C 7279.2979 2839.2398 7526.002 2518.9997 7526.002 2336.3438 C 7526.002 2281.7842 7516.5126 2253.3184 7492.791 2253.3184 C 7433.4871 2253.3184 7317.252 2488.1616 7042.082 2694.5391 C 7139.3404 2374.2981 7246.0879 1982.8922 7246.0879 1857.168 C 7246.0879 1800.2362 7158.3179 1622.3242 7063.4316 1622.3242 z M 3314.9434 1833.4473 C 3279.361 1985.2652 3269.8741 2191.642 3267.502 2288.9004 C 3210.5702 2490.5336 3082.4727 2571.1875 2973.3535 2571.1875 C 2866.6065 2571.1875 2838.1406 2481.0453 2838.1406 2388.5312 C 2838.1406 2068.2903 3084.8443 1876.1461 3314.9434 1833.4473 z M 5722.2363 1859.541 C 5791.0288 1859.541 5814.752 1895.1236 5814.752 1933.0781 C 5814.752 1982.8934 5762.564 2049.3128 5719.8652 2096.7559 C 5655.817 2027.9634 5608.373 1956.7985 5608.373 1883.2617 C 5608.373 1883.2617 5684.2818 1859.541 5722.2363 1859.541 z M 6655.4199 3078.8281 C 6603.2325 3195.0637 6536.8125 3273.3457 6453.7871 3273.3457 C 6394.4832 3273.3457 6297.2246 3237.7632 6297.2246 3168.9707 C 6297.2246 3112.039 6430.0652 3123.8991 6655.4199 3078.8281 z "
       transform="matrix(0.26458,0,0,0.26458,0,-726.99087)"
       id="flowRoot1435-6-7-9-0-7-6-3-3-6" />
  </g>
</svg>
